<?xml version="1.0" encoding="utf-8"?>
<!-- Generator: Adobe Illustrator 14.0.0, SVG Export Plug-In . SVG Version: 6.00 Build 43363)  -->
<!DOCTYPE svg PUBLIC "-//W3C//DTD SVG 1.1//EN" "http://www.w3.org/Graphics/SVG/1.1/DTD/svg11.dtd">
<svg version="1.1" id="Layer_1" xmlns="http://www.w3.org/2000/svg" xmlns:xlink="http://www.w3.org/1999/xlink" x="0px" y="0px"
	 width="120px" height="120px" viewBox="0 0 120 120" enable-background="new 0 0 120 120" xml:space="preserve">
<g>
	<g>
		<g>
			<path fill="#FFFFFF" d="M52.446,47.954c0,1.133,0.108,2.476,0.332,4.03c0.022,0.162,0.225,0.738,0.606,1.722
				c0.383,0.989,0.716,2.182,0.995,3.571c0.28,1.394,0.425,2.947,0.425,4.662h-2.358c0-0.029-0.021-0.326-0.055-0.872
				c-0.039-0.55-0.091-1.127-0.147-1.726c-0.066-0.597-0.135-1.242-0.224-1.94c-0.085-0.7-0.192-1.345-0.313-1.942
				c-0.123-0.6-0.271-1.027-0.445-1.288c-0.562-0.777-0.898-1.547-1.011-2.307c-0.109-0.759-0.167-2.064-0.168-3.91
				c0-2.589,0.465-4.792,1.385-6.604c0.923-1.811,2.032-2.719,3.336-2.719c0.367,0,0.759,0.096,1.181,0.288
				c-1.034,0.553-1.883,1.655-2.544,3.305c-0.662,1.65-0.994,3.564-0.994,5.732V47.954z M45.366,36.104
				c0,1.232,0.112,2.671,0.336,4.32c1.349,2.01,2.023,4.729,2.023,8.16c0,5.667-0.395,9.604-1.181,11.802
				c-0.787-4.695-1.179-8.628-1.179-11.802c0-2.491-0.107-3.935-0.331-4.323c-1.35-2.006-2.028-4.728-2.028-8.157
				c0-2.721,0.465-5.052,1.387-6.992c0.921-1.942,2.034-2.916,3.332-2.916c0.37,0,0.764,0.115,1.18,0.341
				c-1.029,0.552-1.878,1.717-2.54,3.495C45.703,31.812,45.366,33.837,45.366,36.104z"/>
		</g>
		<path fill="#FFFFFF" d="M89.619,76.899c0.424-0.971,0.774-2.006,1.045-3.11c0.783-3.208,0.83-6.412,0.136-9.619
			c-0.698-3.203-2.077-5.852-4.137-7.938c-2.062-2.085-4.668-3.481-7.822-4.192c-3.155-0.705-6.31-0.659-9.464,0.136
			c-3.153,0.798-5.762,2.253-7.821,4.366c-1.26,1.261-2.528,2.999-3.804,5.216c-1.275,2.212-2.393,4.634-3.358,7.261
			c-0.937,2.546-1.657,5.07-2.173,7.572c-1.074-1.347-2.066-2.566-2.96-3.644c-1.7-2.048-2.729-3.265-3.09-3.652
			c-0.618-0.565-1.473-0.745-2.567-0.539c-1.095,0.205-2.259,0.746-3.494,1.622c-1.008-2.189-1.508-4.816-1.508-7.879h-2.473
			c0,2.42,0.318,4.622,0.965,6.604l-6.566-6.604l-1.815,1.813l6.565,6.569c-1.955-0.645-4.146-0.968-6.565-0.968v2.472
			c3.062,0,5.688,0.504,7.876,1.508c-0.743,1.056-1.232,2.057-1.491,3.007h-8.897c-0.042,0.481,0.132,0.984,0.526,1.489
			c0.4,0.505,1.062,1.076,1.986,1.72c0.921,0.635,1.753,1.178,2.508,1.612c0.745,0.441,1.871,1.085,3.368,1.918
			c1.492,0.836,2.62,1.468,3.363,1.911c0.926,2.242,2.136,4.186,3.633,5.813c1.499,1.63,3.062,2.436,4.69,2.436h27.469
			c1.628,0,3.176-0.797,4.651-2.405c1.473-1.607,2.672-3.509,3.597-5.712h-0.005c0.838-0.44,1.974-1.024,3.401-1.751
			c1.433-0.727,2.544-1.298,3.339-1.711c0.783-0.42,1.637-0.934,2.535-1.558c0.906-0.615,1.549-1.229,1.95-1.843
			c0.394-0.62,0.596-1.257,0.596-1.92H89.619z M54.606,76.343c0.464-2.203,1.114-4.424,1.95-6.663
			c0.838-2.243,1.817-4.302,2.936-6.183c1.119-1.879,2.237-3.386,3.343-4.518v-0.003c1.442-1.467,3.133-2.638,5.079-3.516
			c1.942-0.877,3.959-1.351,6.044-1.43c2.007-0.051,3.979,0.286,5.908,1.007c1.934,0.722,3.566,1.751,4.909,3.091
			c2.855,2.908,4.196,6.487,4.018,10.737c-0.053,1.751-0.374,3.562-0.968,5.427c-0.294,0.928-0.608,1.796-0.946,2.606H84.29
			c1.237-1.862,1.917-4.384,2.03-7.574c0.157-3.654-0.99-6.743-3.439-9.27c-1.129-1.158-2.528-2.053-4.19-2.684
			c-1.66-0.633-3.354-0.92-5.079-0.87c-1.776,0.054-3.5,0.466-5.178,1.235c-1.673,0.774-3.127,1.793-4.361,3.056
			c-1.831,1.854-3.521,4.761-5.077,8.729c-1.051,2.672-1.738,5.128-2.08,7.378H54.51C54.544,76.714,54.568,76.531,54.606,76.343z
			 M73.958,65.174c0-1.014,0.36-1.89,1.083-2.624c0.723-0.735,1.595-1.102,2.625-1.102c1.029,0,1.907,0.366,2.63,1.102
			c0.718,0.734,1.078,1.61,1.078,2.624c0,1.02-0.36,1.888-1.078,2.611c-0.723,0.721-1.601,1.08-2.63,1.08
			c-1.03,0-1.902-0.359-2.625-1.08C74.318,67.062,73.958,66.193,73.958,65.174z"/>
	</g>
</g>
</svg>
