<?xml version="1.0" encoding="utf-8"?>
<!-- Generator: Adobe Illustrator 14.0.0, SVG Export Plug-In . SVG Version: 6.00 Build 43363)  -->
<!DOCTYPE svg PUBLIC "-//W3C//DTD SVG 1.1//EN" "http://www.w3.org/Graphics/SVG/1.1/DTD/svg11.dtd">
<svg version="1.1" id="Layer_1" xmlns="http://www.w3.org/2000/svg" xmlns:xlink="http://www.w3.org/1999/xlink" x="0px" y="0px"
	 width="120px" height="120px" viewBox="0 0 120 120" enable-background="new 0 0 120 120" xml:space="preserve">
<g>
	<path fill="#FFFFFF" d="M76.609,45.48c0.021,0.045,0.031,0.092,0.031,0.136l-5.997,48.026c0,2.766-2.239,5.003-5.003,5.003H48.715
		c-2.766,0-5.003-2.237-5.003-5.003l-5.998-48.026c0-0.044,0.012-0.091,0.031-0.136c-0.007-0.054-0.031-0.104-0.031-0.151
		c0-2.495,8.712-4.516,19.464-4.516c0.621,0,1.236,0.011,1.851,0.021l-2.327,8.985c0.161,0.002,0.318,0.005,0.484,0.005
		c1.258,0,2.479-0.026,3.664-0.081l2.252-8.717c7.855,0.583,13.539,2.284,13.539,4.302C76.641,45.376,76.617,45.427,76.609,45.48z
		 M64.051,21.354l-5.03,19.48c1.41,0.034,2.771,0.096,4.074,0.192l4.058-15.67h15.131v-4.003H64.051z"/>
</g>
</svg>
