<?xml version="1.0" encoding="utf-8"?>
<!-- Generator: Adobe Illustrator 14.0.0, SVG Export Plug-In . SVG Version: 6.00 Build 43363)  -->
<!DOCTYPE svg PUBLIC "-//W3C//DTD SVG 1.1//EN" "http://www.w3.org/Graphics/SVG/1.1/DTD/svg11.dtd">
<svg version="1.1" id="Layer_1" xmlns="http://www.w3.org/2000/svg" xmlns:xlink="http://www.w3.org/1999/xlink" x="0px" y="0px"
	 width="120px" height="120px" viewBox="0 0 120 120" enable-background="new 0 0 120 120" xml:space="preserve">
<g>
	<g>
		<path fill="#FFFFFF" d="M93.809,76.902c-4.227,2.111-7.576,4.406-10.037,6.869c-2.467,2.463-4.75,5.804-6.863,10.029
			c0-0.705-0.039-1.419-0.102-2.144c-0.068-0.723-0.191-1.518-0.361-2.372c-0.18-0.856-0.332-1.602-0.463-2.215
			c-0.131-0.616-0.355-1.42-0.664-2.415c-0.307-0.986-0.514-1.689-0.627-2.111c-0.109-0.415-0.34-1.167-0.693-2.246
			c-0.352-1.075-0.572-1.729-0.664-1.942c-7.482,5.234-15.943,3.13-25.381-6.305c-9.445-9.443-11.547-17.903-6.307-25.391
			c-0.18-0.038-0.812-0.251-1.912-0.624c-1.104-0.377-1.861-0.618-2.281-0.73c-0.418-0.109-1.123-0.313-2.111-0.625
			c-0.988-0.311-1.791-0.525-2.408-0.662c-0.621-0.132-1.355-0.288-2.213-0.465c-0.861-0.173-1.654-0.296-2.381-0.36
			c-0.725-0.065-1.439-0.096-2.143-0.096c4.223-2.117,7.57-4.404,10.035-6.871c2.467-2.465,4.752-5.807,6.863-10.033
			c0,0.705,0.031,1.419,0.1,2.149c0.068,0.725,0.191,1.518,0.363,2.374c0.18,0.858,0.334,1.592,0.463,2.213
			c0.131,0.612,0.354,1.418,0.666,2.41c0.303,0.989,0.514,1.692,0.623,2.111c0.109,0.416,0.354,1.175,0.727,2.278
			c0.375,1.1,0.582,1.738,0.631,1.915c7.479-5.243,15.947-3.141,25.383,6.303c9.445,9.439,11.545,17.902,6.307,25.39
			c0.221,0.038,0.863,0.25,1.951,0.623c1.074,0.372,1.824,0.613,2.242,0.726c0.414,0.109,1.117,0.32,2.113,0.633
			c0.99,0.305,1.791,0.522,2.414,0.654c0.617,0.13,1.35,0.294,2.203,0.465c0.863,0.179,1.65,0.301,2.381,0.362
			c0.729,0.068,1.443,0.1,2.148,0.1L93.809,76.902z"/>
	</g>
</g>
</svg>
