<?xml version="1.0" encoding="utf-8"?>
<!-- Generator: Adobe Illustrator 14.0.0, SVG Export Plug-In . SVG Version: 6.00 Build 43363)  -->
<!DOCTYPE svg PUBLIC "-//W3C//DTD SVG 1.1//EN" "http://www.w3.org/Graphics/SVG/1.1/DTD/svg11.dtd">
<svg version="1.1" id="Layer_1" xmlns="http://www.w3.org/2000/svg" xmlns:xlink="http://www.w3.org/1999/xlink" x="0px" y="0px"
	 width="120px" height="120px" viewBox="0 0 120 120" enable-background="new 0 0 120 120" xml:space="preserve">
<g>
	<g>
		<path fill="#FFFFFF" d="M93.37,93.37c-0.947,0.944-3.434,0.373-7.463-1.72c-4.021-2.094-8.561-4.942-13.602-8.551
			c-5.043-3.611-10.137-7.414-15.283-11.418c-5.146-4.012-9.469-7.462-12.971-10.37c-3.504-2.902-5.586-4.664-6.24-5.28
			c-0.973-1.057-1.277-2.522-0.926-4.392c0.352-1.864,1.277-3.856,2.768-5.975c-3.74-1.715-8.225-2.575-13.461-2.575v-4.226
			c4.137,0,7.881,0.552,11.221,1.655L26.192,29.291l3.102-3.101L40.52,37.479c-1.105-3.388-1.65-7.151-1.65-11.289h4.227
			c0,5.235,0.857,9.725,2.576,13.467c2.111-1.498,4.104-2.421,5.973-2.772s3.332-0.045,4.389,0.921
			c0.615,0.662,2.373,2.742,5.279,6.243c2.906,3.494,6.367,7.819,10.369,12.97c4.004,5.153,7.809,10.248,11.418,15.285
			c3.611,5.039,6.457,9.575,8.549,13.603c2.096,4.023,2.668,6.52,1.721,7.462V93.37z"/>
	</g>
</g>
</svg>
