<?xml version="1.0" encoding="utf-8"?>
<!-- Generator: Adobe Illustrator 14.0.0, SVG Export Plug-In . SVG Version: 6.00 Build 43363)  -->
<!DOCTYPE svg PUBLIC "-//W3C//DTD SVG 1.1//EN" "http://www.w3.org/Graphics/SVG/1.1/DTD/svg11.dtd">
<svg version="1.1" id="Layer_1" xmlns="http://www.w3.org/2000/svg" xmlns:xlink="http://www.w3.org/1999/xlink" x="0px" y="0px"
	 width="120px" height="120px" viewBox="0 0 120 120" enable-background="new 0 0 120 120" xml:space="preserve">
<g>
	<g>
		<path fill="#FFFFFF" d="M66.352,55.775c0,1.539,0.193,3.363,0.594,5.477c0.041,0.222,0.404,1.004,1.088,2.342
			c0.684,1.344,1.281,2.964,1.779,4.855c0.506,1.893,0.764,4.006,0.764,6.337h-4.225c0-0.04-0.037-0.443-0.1-1.187
			c-0.07-0.748-0.16-1.53-0.262-2.344c-0.117-0.812-0.242-1.689-0.4-2.639c-0.154-0.952-0.344-1.828-0.562-2.642
			c-0.219-0.814-0.488-1.396-0.795-1.751c-1.01-1.056-1.613-2.102-1.812-3.135c-0.197-1.033-0.299-2.807-0.301-5.314
			c0-3.52,0.83-6.516,2.48-8.979s3.643-3.696,5.975-3.696c0.656,0,1.359,0.13,2.113,0.392c-1.852,0.75-3.369,2.248-4.557,4.491
			c-1.186,2.244-1.779,4.846-1.781,7.793L66.352,55.775z M53.67,39.665c0,1.677,0.201,3.631,0.602,5.873
			c2.416,2.733,3.623,6.43,3.623,11.093c0,7.704-0.705,13.055-2.113,16.044c-1.408-6.384-2.111-11.729-2.111-16.044
			c0-3.387-0.193-5.349-0.592-5.875c-2.416-2.728-3.633-6.427-3.633-11.091c0-3.696,0.83-6.865,2.482-9.505
			c1.648-2.642,3.641-3.965,5.967-3.965c0.664,0,1.369,0.157,2.115,0.464c-1.846,0.75-3.363,2.334-4.551,4.754
			C54.273,33.832,53.67,36.584,53.67,39.665z M81.996,85.681c-0.926,2.203-2.125,4.105-3.596,5.714
			c-1.477,1.607-3.025,2.404-4.652,2.404H46.279c-1.627,0-3.191-0.806-4.689-2.436c-1.498-1.628-2.709-3.571-3.633-5.814
			c-0.746-0.443-1.871-1.074-3.365-1.911c-1.494-0.832-2.621-1.476-3.367-1.918c-0.752-0.435-1.586-0.977-2.508-1.611
			c-0.926-0.644-1.586-1.216-1.986-1.72c-0.395-0.505-0.568-1.008-0.527-1.489h67.609c0,0.663-0.203,1.3-0.596,1.92
			c-0.4,0.612-1.045,1.228-1.951,1.843c-0.898,0.623-1.75,1.137-2.535,1.558c-0.795,0.412-1.906,0.984-3.338,1.711
			c-1.428,0.727-2.564,1.311-3.4,1.75H81.996z"/>
	</g>
</g>
</svg>
