<?xml version="1.0" encoding="utf-8"?>
<!-- Generator: Adobe Illustrator 14.0.0, SVG Export Plug-In . SVG Version: 6.00 Build 43363)  -->
<!DOCTYPE svg PUBLIC "-//W3C//DTD SVG 1.1//EN" "http://www.w3.org/Graphics/SVG/1.1/DTD/svg11.dtd">
<svg version="1.1" id="Layer_1" xmlns="http://www.w3.org/2000/svg" xmlns:xlink="http://www.w3.org/1999/xlink" x="0px" y="0px"
	 width="120px" height="120px" viewBox="0 0 120 120" enable-background="new 0 0 120 120" xml:space="preserve">
<g>
	<g>
		<path fill="#FFFFFF" d="M76.963,67.691c0.791,0.747,2.27,0.926,4.422,0.527c2.154-0.394,4.139-1.254,5.945-2.575
			c2.207,3.479,3.844,6.748,4.92,9.808c1.074,3.056,1.592,5.683,1.549,7.886c-0.041,2.201-0.342,4.062-0.893,5.584
			c-0.547,1.518-1.332,2.756-2.344,3.729c-2.025,2.064-5.225,1.401-9.605-2.021c-4.379-3.409-11.631-10.199-21.752-20.361
			l-4.756-4.756c-10.604-10.606-16.969-17.036-19.082-19.28c-6.025-6.557-9.086-11.219-9.176-13.995
			c-0.039-1.101,0.334-2.047,1.125-2.836c0.918-0.927,2.086-1.666,3.494-2.214c1.406-0.554,3.115-0.882,5.117-0.99
			c2.002-0.111,4.406,0.265,7.203,1.119c2.789,0.86,5.771,2.192,8.941,3.996c-0.354,0.486-0.596,0.793-0.727,0.925
			c-1.146,1.323-2.48,2.511-3.994,3.565c-1.518,1.055-2.916,1.826-4.193,2.313c0.484,0.391,1.217,0.624,2.213,0.69
			c0.988,0.07,2.053-0.038,3.199-0.326c1.146-0.287,2.324-0.769,3.533-1.455c1.207-0.684,2.258-1.509,3.137-2.476
			c0-0.043,0.199-0.332,0.594-0.858c4.092,2.731,8.43,6.228,13.006,10.498c-0.043,0-0.133,0.1-0.264,0.296
			c-0.131,0.202-0.24,0.341-0.332,0.433c-1.186,1.32-2.531,2.508-4.021,3.568c-1.498,1.057-2.885,1.824-4.166,2.308
			c0.484,0.398,1.221,0.629,2.215,0.694c0.988,0.066,2.045-0.046,3.17-0.332c1.125-0.285,2.291-0.77,3.498-1.453
			c1.207-0.682,2.254-1.485,3.133-2.412l0.166,0.167l0.164,0.166c4.975,4.973,9.129,9.793,12.48,14.461
			c-2.596,2.77-5.24,4.641-7.928,5.608L76.963,67.691z"/>
	</g>
</g>
</svg>
