<?xml version="1.0" encoding="utf-8"?>
<!-- Generator: Adobe Illustrator 14.0.0, SVG Export Plug-In . SVG Version: 6.00 Build 43363)  -->
<!DOCTYPE svg PUBLIC "-//W3C//DTD SVG 1.1//EN" "http://www.w3.org/Graphics/SVG/1.1/DTD/svg11.dtd">
<svg version="1.1" id="Layer_1" xmlns="http://www.w3.org/2000/svg" xmlns:xlink="http://www.w3.org/1999/xlink" x="0px" y="0px"
	 width="120px" height="120px" viewBox="0 0 120 120" enable-background="new 0 0 120 120" xml:space="preserve">
<g>
	<g>
		<path fill="#FFFFFF" d="M89.701,90.653c-1.711,1.761-4.055,2.796-7.031,3.128c-2.965,0.331-6.277-0.153-9.93-1.451
			c-3.658-1.297-7.201-3.338-10.631-6.104c-1.719-1.41-3.672-2.484-5.875-3.24c-2.201-0.744-4.303-1.217-6.305-1.419
			c-2.002-0.201-3.973-0.373-5.906-0.522c-1.941-0.16-3.752-0.492-5.451-0.997c-1.689-0.503-3.047-1.287-4.055-2.342
			c-3.523-3.561-5.955-8.088-7.303-13.566c-1.338-5.482-1.418-10.96-0.23-16.44c1.195-5.476,3.551-10.002,7.072-13.568
			c3.521-3.564,7.977-5.951,13.367-7.165c5.393-1.206,10.783-1.128,16.176,0.231c5.391,1.362,9.848,3.851,13.369,7.464
			c2.154,2.152,4.324,5.123,6.498,8.913c2.182,3.782,4.094,7.92,5.742,12.411c1.652,4.487,2.92,8.933,3.803,13.339
			c0.875,4.399,1.07,8.522,0.564,12.373c-0.51,3.852-1.797,6.829-3.869,8.942L89.701,90.653z M74.781,38.821
			c-2.463-2.506-5.354-4.508-8.682-6.008c-3.318-1.5-6.766-2.31-10.33-2.444c-3.43-0.087-6.801,0.488-10.098,1.722
			c-3.305,1.233-6.096,2.993-8.391,5.282c-4.881,4.971-7.172,11.088-6.867,18.352c0.09,2.992,0.641,6.086,1.656,9.275
			c1.006,3.193,2.172,5.979,3.492,8.354c0.662,1.145,1.828,1.981,3.498,2.506c1.68,0.532,3.602,0.864,5.783,0.995
			c2.174,0.13,4.406,0.262,6.699,0.396c2.287,0.13,4.598,0.51,6.93,1.123c2.334,0.614,4.248,1.539,5.746,2.769
			c3.127,2.557,6.041,4.499,8.752,5.814c2.707,1.318,5.18,2.011,7.426,2.079c2.242,0.062,4.111-0.671,5.611-2.212
			c1.801-1.851,2.926-4.427,3.369-7.724c0.441-3.298,0.262-6.831-0.531-10.598c-0.793-3.764-1.904-7.561-3.332-11.389
			c-1.434-3.833-3.105-7.352-5.02-10.566c-1.91-3.211-3.822-5.785-5.713-7.722V38.821z M64.221,76.912
			c-1.582-1.318-3.764-2.305-6.539-2.968c-2.768-0.662-5.381-1.044-7.824-1.155c-2.436-0.112-4.736-0.332-6.893-0.656
			c-2.166-0.33-3.523-0.875-4.098-1.621c-2.602-3.258-4.01-7.926-4.225-14.001c-0.27-6.247,1.691-11.527,5.875-15.844
			c1.934-1.979,4.326-3.509,7.162-4.586c2.838-1.082,5.736-1.574,8.682-1.488c3.037,0.091,5.986,0.796,8.85,2.111
			c2.859,1.321,5.346,3.063,7.457,5.224c3.129,3.167,6.018,8.136,8.682,14.916c2.662,6.782,3.992,12.767,3.992,17.957
			c0,2.161-0.121,3.861-0.361,5.118c-0.242,1.259-0.826,2.365-1.75,3.332c-3.34,3.387-9.678,1.274-19.012-6.339H64.221z
			 M49.434,43.047c-1.762,0-3.26,0.626-4.496,1.882c-1.229,1.255-1.842,2.753-1.842,4.485c0,1.742,0.613,3.228,1.842,4.463
			c1.236,1.231,2.734,1.846,4.496,1.846s3.252-0.614,4.486-1.846c1.236-1.235,1.85-2.721,1.85-4.463c0-1.732-0.613-3.23-1.85-4.485
			C52.686,43.673,51.195,43.047,49.434,43.047z"/>
	</g>
</g>
</svg>
