<?xml version="1.0" encoding="utf-8"?>
<!-- Generator: Adobe Illustrator 14.0.0, SVG Export Plug-In . SVG Version: 6.00 Build 43363)  -->
<!DOCTYPE svg PUBLIC "-//W3C//DTD SVG 1.1//EN" "http://www.w3.org/Graphics/SVG/1.1/DTD/svg11.dtd">
<svg version="1.1" id="Layer_1" xmlns="http://www.w3.org/2000/svg" xmlns:xlink="http://www.w3.org/1999/xlink" x="0px" y="0px"
	 width="70px" height="70px" viewBox="0 0 70 70" enable-background="new 0 0 70 70" xml:space="preserve">
<polygon fill="#1D1D1A" points="70.715,9.902 70.715,9.902 70.715,9.902 62.473,9.902 62.473,0.33 0.715,0.33 0.715,20.921 
	62.473,20.921 62.473,12.375 68.242,12.375 68.242,28.6 30.357,30.396 30.357,30.777 30.357,32.959 30.357,37.758 27.062,37.758 
	24.598,37.758 24.598,40.23 27.062,40.23 27.062,70.33 36.127,70.33 36.127,40.23 38.6,40.23 38.6,37.758 36.127,37.758 
	32.83,37.758 32.83,32.289 70.715,30.502 70.713,30.493 70.715,30.493 "/>
</svg>
